<svg width="128" height="128" viewBox="0 0 128 128" fill="none" xmlns="http://www.w3.org/2000/svg">
  <!-- Fond vert foncé -->
  <rect width="128" height="128" rx="24" fill="#2E7D32"/>
  
  <!-- Cercle extérieur -->
  <circle cx="64" cy="64" r="40" stroke="#FFFFFF" stroke-width="4" fill="none"/>
  
  <!-- Symbole de plante stylisé -->
  <path d="M64 32C64 32 52 48 52 64C52 72 56 80 64 80C72 80 76 72 76 64C76 48 64 32 64 32Z" fill="#8BC34A" stroke="#FFFFFF" stroke-width="2"/>
  
  <!-- Ligne goutte d'eau -->
  <path d="M64 80C64 80 64 96 64 104" stroke="#FFFFFF" stroke-width="4" stroke-linecap="round"/>
  
  <!-- Goutte d'eau -->
  <path d="M64 104C64 104 56 96 56 90C56 84 60 80 64 80C68 80 72 84 72 90C72 96 64 104 64 104Z" fill="#4CAF50" stroke="#FFFFFF" stroke-width="2"/>
  
  <!-- Texte "AgriFlow" - simplifié pour SVG -->
  <path d="M28 116L30 110H32L34 116H32L31.5 114.5H30.5L30 116H28ZM31 113.5L30.75 112.75L30.5 113.5H31Z" fill="white"/>
  <path d="M35 116V110H37C38.5 110 39 111 39 112C39 113 38.5 114 37 114H36V116H35ZM36 113H37C37.5 113 38 112.75 38 112C38 111.25 37.5 111 37 111H36V113Z" fill="white"/>
  <path d="M40 110H41V114.5C41 115 41.5 115 42 115C42.5 115 43 115 43 114.5V110H44V114.5C44 116 42.5 116 42 116C41.5 116 40 116 40 114.5V110Z" fill="white"/>
  <path d="M45 110H46V116H45V110Z" fill="white"/>
  <path d="M47 110H48V115H50V116H47V110Z" fill="white"/>
  <path d="M51 110H52V116H51V110Z" fill="white"/>
  <path d="M53 116V110H55C56.5 110 57 111 57 112C57 113 56.5 114 55 114C56 114 56 114.5 56.5 115L57 116H56L55.5 115C55 114 54.5 114 54 114V116H53ZM54 113H55C55.5 113 56 112.75 56 112C56 111.25 55.5 111 55 111H54V113Z" fill="white"/>
  <path d="M58 111V110H62V111H60.5V116H59.5V111H58Z" fill="white"/>
  <path d="M67 110L69 116H68L67.5 114.5H65.5L65 116H64L66 110H67ZM67 113.5L66.5 112L66 113.5H67Z" fill="white"/>
  <path d="M72 116V110H74C75.5 110 76 111 76 112C76 113 75.5 113.5 74 113.5L76 116H75L73 113.5H73V116H72ZM73 112.5H74C74.5 112.5 75 112.25 75 112C75 111.5 74.5 111 74 111H73V112.5Z" fill="white"/>
  <path d="M77 116V110H81V111H78V112.5H80V113.5H78V115H81V116H77Z" fill="white"/>
  <path d="M82 110H83V115.5L86 115.5V116H82V110Z" fill="white"/>
  <path d="M87 116V110H91C92 110 92 111 92 111.5C92 112 91.5 112.5 91 112.5C91.5 112.5 92 113 92 113.5C92 114 92 116 91 116H87ZM88 112.5H91C91.5 112.5 91.5 112 91.5 111.5C91.5 111 91.5 110.5 91 110.5H88V112.5ZM88 115.5H91C91.5 115.5 91.5 115 91.5 114.5V113.5C91.5 113 91.5 112.5 91 112.5H88V115.5Z" fill="white"/>
  <path d="M96 116L98 110H100L102 116H100L99.5 114.5H98.5L98 116H96ZM99 113.5L98.75 112.75L98.5 113.5H99Z" fill="white"/>
</svg>
